C:\Users\Nick\Projects\MRSDeviceOpt\results\experiments\subject01\walk3\expdata\ground_reaction.mot
version=1
nRows=32
nColumns=19
inDegrees=no
endheader
time	ground_force_r_vx	ground_force_r_vy	ground_force_r_vz	ground_force_r_px	ground_force_r_py	ground_force_r_pz	ground_force_l_vx	ground_force_l_vy	ground_force_l_vz	ground_force_l_px	ground_force_l_py	ground_force_l_pz	ground_torque_r_x	ground_torque_r_y	ground_torque_r_z	ground_torque_l_x	ground_torque_l_y	ground_torque_l_z
2.960000	-10.832001	77.032669	-5.302195	1.085381	0.000000	-0.396162	111.916862	787.301636	54.734371	0.661143	0.000000	-0.562193	-0.000000	0.802725	-0.000000	0.000000	-3.531968	0.000000
2.961000	-10.210082	83.308548	-5.652450	1.085948	0.000000	-0.397631	112.872383	786.213989	54.405460	0.659932	0.000000	-0.562116	-0.000000	0.553751	-0.000000	0.000000	-3.503417	0.000000
2.962000	-9.447152	89.884537	-6.003130	1.086353	0.000000	-0.398936	113.833511	785.020752	54.048344	0.658713	0.000000	-0.562040	-0.000000	0.316769	-0.000000	0.000000	-3.474985	0.000000
2.963000	-8.544200	96.748734	-6.347818	1.086622	0.000000	-0.400104	114.799591	783.720398	53.662079	0.657489	0.000000	-0.561965	-0.000000	0.093402	-0.000000	0.000000	-3.446669	0.000000
2.964000	-7.505295	103.886032	-6.679510	1.086779	0.000000	-0.401156	115.770142	782.311646	53.245827	0.656258	0.000000	-0.561890	0.000000	-0.114983	0.000000	0.000000	-3.418462	0.000000
2.965000	-6.337761	111.278236	-6.990776	1.086838	0.000000	-0.402110	116.744934	780.793213	52.798882	0.655020	0.000000	-0.561818	0.000000	-0.307286	0.000000	0.000000	-3.390363	0.000000
2.966000	-5.052257	118.904137	-7.273935	1.086817	0.000000	-0.402978	117.724060	779.163635	52.320656	0.653777	0.000000	-0.561746	0.000000	-0.482669	0.000000	0.000000	-3.362371	0.000000
2.967000	-3.662758	126.739716	-7.521254	1.086726	0.000000	-0.403773	118.707924	777.421265	51.810707	0.652528	0.000000	-0.561675	0.000000	-0.640559	0.000000	0.000000	-3.334491	0.000000
2.968000	-2.186428	134.758377	-7.725136	1.086575	0.000000	-0.404505	119.697227	775.564392	51.268753	0.651274	0.000000	-0.561605	0.000000	-0.780642	0.000000	0.000000	-3.306731	0.000000
2.969000	-0.643384	142.931259	-7.878323	1.086375	0.000000	-0.405180	120.692909	773.590942	50.694664	0.650014	0.000000	-0.561536	0.000000	-0.902852	0.000000	0.000000	-3.279100	0.000000
2.970000	0.943633	151.227570	-7.974083	1.086132	0.000000	-0.405807	121.696030	771.498596	50.088516	0.648750	0.000000	-0.561468	0.000000	-1.007361	0.000000	0.000000	-3.251617	0.000000
2.971000	2.549695	159.615005	-8.006392	1.085852	0.000000	-0.406391	122.707642	769.284729	49.450565	0.647482	0.000000	-0.561401	0.000000	-1.094560	0.000000	0.000000	-3.224302	0.000000
2.972000	4.148184	168.060150	-7.970099	1.085542	0.000000	-0.406938	123.728584	766.946655	48.781300	0.646210	0.000000	-0.561335	0.000000	-1.165047	0.000000	0.000000	-3.197179	0.000000
2.973000	5.711368	176.528900	-7.861071	1.085207	0.000000	-0.407451	124.759331	764.481140	48.081455	0.644935	0.000000	-0.561269	0.000000	-1.219603	0.000000	0.000000	-3.170280	0.000000
2.974000	7.211016	184.987000	-7.676332	1.084850	0.000000	-0.407935	125.799767	761.884888	47.352024	0.643658	0.000000	-0.561204	0.000000	-1.259175	0.000000	0.000000	-3.143640	0.000000
2.975000	8.619031	193.400406	-7.414166	1.084477	0.000000	-0.408393	126.849014	759.154419	46.594292	0.642379	0.000000	-0.561140	0.000000	-1.284850	0.000000	0.000000	-3.117297	0.000000
2.976000	9.908101	201.735809	-7.074220	1.084090	0.000000	-0.408829	127.905281	756.286133	45.809841	0.641098	0.000000	-0.561076	0.000000	-1.297839	0.000000	0.000000	-3.091297	0.000000
2.977000	11.052320	209.961060	-6.657563	1.083693	0.000000	-0.409244	128.965714	753.276306	45.000587	0.639818	0.000000	-0.561012	0.000000	-1.299446	0.000000	0.000000	-3.065685	0.000000
2.978000	12.027779	218.045593	-6.166746	1.083287	0.000000	-0.409642	130.026337	750.121277	44.168774	0.638537	0.000000	-0.560949	0.000000	-1.291054	0.000000	0.000000	-3.040513	0.000000
2.979000	12.813099	225.960815	-5.605824	1.082877	0.000000	-0.410024	131.082031	746.817444	43.316978	0.637258	0.000000	-0.560885	0.000000	-1.274096	0.000000	0.000000	-3.015834	0.000000
2.980000	13.389903	233.680527	-4.980358	1.082463	0.000000	-0.410392	132.126526	743.361206	42.448128	0.635981	0.000000	-0.560821	0.000000	-1.250036	0.000000	0.000000	-2.991703	0.000000
2.981000	13.743186	241.181198	-4.297393	1.082047	0.000000	-0.410749	133.152603	739.749146	41.565464	0.634706	0.000000	-0.560757	0.000000	-1.220349	0.000000	0.000000	-2.968176	0.000000
2.982000	13.861609	248.442337	-3.565397	1.081631	0.000000	-0.411096	134.152161	735.978149	40.672546	0.633435	0.000000	-0.560693	0.000000	-1.186498	0.000000	0.000000	-2.945309	0.000000
2.983000	13.737681	255.446686	-2.794173	1.081215	0.000000	-0.411433	135.116425	732.045288	39.773209	0.632169	0.000000	-0.560628	0.000000	-1.149921	0.000000	0.000000	-2.923157	0.000000
2.984000	13.367838	262.180511	-1.994738	1.080802	0.000000	-0.411764	136.036255	727.947876	38.871517	0.630908	0.000000	-0.560562	0.000000	-1.112010	0.000000	0.000000	-2.901774	0.000000
2.985000	12.752422	268.633667	-1.179155	1.080391	0.000000	-0.412088	136.902390	723.683594	37.971722	0.629653	0.000000	-0.560495	0.000000	-1.074096	0.000000	0.000000	-2.881211	0.000000
2.986000	11.895559	274.799774	-0.360334	1.079983	0.000000	-0.412406	137.705719	719.250366	37.078197	0.628405	0.000000	-0.560427	0.000000	-1.037436	0.000000	0.000000	-2.861513	0.000000
2.987000	10.804945	280.676331	0.448205	1.079578	0.000000	-0.412721	138.437607	714.646545	36.195354	0.627164	0.000000	-0.560358	0.000000	-1.003204	0.000000	0.000000	-2.842723	0.000000
2.988000	9.491547	286.264526	1.232607	1.079177	0.000000	-0.413032	139.090149	709.870972	35.327572	0.625932	0.000000	-0.560288	0.000000	-0.972475	0.000000	0.000000	-2.824877	0.000000
2.989000	7.969246	291.569305	1.978988	1.078778	0.000000	-0.413340	139.656479	704.922668	34.479095	0.624709	0.000000	-0.560216	0.000000	-0.946222	0.000000	0.000000	-2.808002	0.000000
2.990000	6.254419	296.599213	2.673764	1.078383	0.000000	-0.413646	140.130905	699.801147	33.653938	0.623495	0.000000	-0.560142	0.000000	-0.925308	0.000000	0.000000	-2.792118	0.000000
2.991000	4.365489	301.366089	3.303996	1.077989	0.000000	-0.413951	140.509155	694.506531	32.855789	0.622291	0.000000	-0.560067	0.000000	-0.910479	0.000000	0.000000	-2.777237	0.000000
